<?xml version="1.0" encoding="UTF-8" standalone="no"?>
<!DOCTYPE svg PUBLIC "-//W3C//DTD SVG 1.1//EN"
 "http://www.w3.org/Graphics/SVG/1.1/DTD/svg11.dtd">
<!-- Generated by graphviz version 2.42.4 (0)
 -->
<!-- Title: G Pages: 1 -->
<svg width="2172pt" height="162pt"
 viewBox="0.00 0.00 2172.20 162.20" xmlns="http://www.w3.org/2000/svg" xmlns:xlink="http://www.w3.org/1999/xlink">
<g id="graph0" class="graph" transform="scale(1 1) rotate(0) translate(21.6 140.6)">
<title>G</title>
<polygon fill="white" stroke="transparent" points="-21.6,21.6 -21.6,-140.6 2150.6,-140.6 2150.6,21.6 -21.6,21.6"/>
<!-- api -->
<g id="node1" class="node">
<title>api</title>
<path fill="#fff2cc" stroke="#bf9000" d="M108,-107C108,-107 12,-107 12,-107 6,-107 0,-101 0,-95 0,-95 0,-81 0,-81 0,-75 6,-69 12,-69 12,-69 108,-69 108,-69 114,-69 120,-75 120,-81 120,-81 120,-95 120,-95 120,-101 114,-107 108,-107"/>
<text text-anchor="middle" x="60" y="-91.2" font-family="Arial" font-size="11.00">Electricity Maps API</text>
<text text-anchor="middle" x="60" y="-79.2" font-family="Arial" font-size="11.00">Flows + Mix</text>
</g>
<!-- ingest -->
<g id="node2" class="node">
<title>ingest</title>
<path fill="#eaf2f8" stroke="#2f5597" d="M329,-113C329,-113 172,-113 172,-113 166,-113 160,-107 160,-101 160,-101 160,-75 160,-75 160,-69 166,-63 172,-63 172,-63 329,-63 329,-63 335,-63 341,-69 341,-75 341,-75 341,-101 341,-101 341,-107 335,-113 329,-113"/>
<text text-anchor="middle" x="250.5" y="-97.2" font-family="Arial" font-size="11.00">Secure Ingestion</text>
<text text-anchor="middle" x="250.5" y="-85.2" font-family="Arial" font-size="11.00">Retry • Rate Limit • Idempotency</text>
<text text-anchor="middle" x="250.5" y="-73.2" font-family="Arial" font-size="11.00">Audit • Validation</text>
</g>
<!-- api&#45;&gt;ingest -->
<g id="edge1" class="edge">
<title>api&#45;&gt;ingest</title>
<path fill="none" stroke="#5b6573" stroke-width="1.3" d="M120.13,-88C130.49,-88 141.51,-88 152.58,-88"/>
<polygon fill="#5b6573" stroke="#5b6573" stroke-width="1.3" points="152.86,-90.45 159.86,-88 152.86,-85.55 152.86,-90.45"/>
</g>
<!-- bronze -->
<g id="node3" class="node">
<title>bronze</title>
<path fill="#fce4d6" stroke="#c65911" d="M506,-119C506,-119 393,-119 393,-119 387,-119 381,-113 381,-107 381,-107 381,-69 381,-69 381,-63 387,-57 393,-57 393,-57 506,-57 506,-57 512,-57 518,-63 518,-69 518,-69 518,-107 518,-107 518,-113 512,-119 506,-119"/>
<text text-anchor="middle" x="449.5" y="-103.2" font-family="Arial" font-size="11.00">BRONZE</text>
<text text-anchor="middle" x="449.5" y="-91.2" font-family="Arial" font-size="11.00">Raw JSON/JSONL</text>
<text text-anchor="middle" x="449.5" y="-79.2" font-family="Arial" font-size="11.00">Immutable</text>
<text text-anchor="middle" x="449.5" y="-67.2" font-family="Arial" font-size="11.00">Partition: ingestion date</text>
</g>
<!-- ingest&#45;&gt;bronze -->
<g id="edge2" class="edge">
<title>ingest&#45;&gt;bronze</title>
<path fill="none" stroke="#5b6573" stroke-width="1.3" d="M341.07,-88C352.07,-88 363.23,-88 373.98,-88"/>
<polygon fill="#5b6573" stroke="#5b6573" stroke-width="1.3" points="373.98,-90.45 380.98,-88 373.98,-85.55 373.98,-90.45"/>
</g>
<!-- spark -->
<g id="node4" class="node">
<title>spark</title>
<path fill="#e2f0d9" stroke="#548235" d="M695,-113C695,-113 570,-113 570,-113 564,-113 558,-107 558,-101 558,-101 558,-75 558,-75 558,-69 564,-63 570,-63 570,-63 695,-63 695,-63 701,-63 707,-69 707,-75 707,-75 707,-101 707,-101 707,-107 701,-113 695,-113"/>
<text text-anchor="middle" x="632.5" y="-97.2" font-family="Arial" font-size="11.00">PySpark Processing</text>
<text text-anchor="middle" x="632.5" y="-85.2" font-family="Arial" font-size="11.00">Schema • Transform • DQ</text>
<text text-anchor="middle" x="632.5" y="-73.2" font-family="Arial" font-size="11.00">Performance Optimizer</text>
</g>
<!-- bronze&#45;&gt;spark -->
<g id="edge3" class="edge">
<title>bronze&#45;&gt;spark</title>
<path fill="none" stroke="#5b6573" stroke-width="1.3" d="M518.16,-88C528.78,-88 539.86,-88 550.74,-88"/>
<polygon fill="#5b6573" stroke="#5b6573" stroke-width="1.3" points="550.86,-90.45 557.86,-88 550.86,-85.55 550.86,-90.45"/>
</g>
<!-- silver -->
<g id="node5" class="node">
<title>silver</title>
<path fill="#ddebf7" stroke="#2f75b5" d="M916,-119C916,-119 759,-119 759,-119 753,-119 747,-113 747,-107 747,-107 747,-69 747,-69 747,-63 753,-57 759,-57 759,-57 916,-57 916,-57 922,-57 928,-63 928,-69 928,-69 928,-107 928,-107 928,-113 922,-119 916,-119"/>
<text text-anchor="middle" x="837.5" y="-103.2" font-family="Arial" font-size="11.00">SILVER</text>
<text text-anchor="middle" x="837.5" y="-91.2" font-family="Arial" font-size="11.00">Delta Lake + Parquet</text>
<text text-anchor="middle" x="837.5" y="-79.2" font-family="Arial" font-size="11.00">Typed • Flattened • Deduplicated</text>
<text text-anchor="middle" x="837.5" y="-67.2" font-family="Arial" font-size="11.00">Partition: data date</text>
</g>
<!-- spark&#45;&gt;silver -->
<g id="edge4" class="edge">
<title>spark&#45;&gt;silver</title>
<path fill="none" stroke="#5b6573" stroke-width="1.3" d="M707.07,-88C717.69,-88 728.74,-88 739.72,-88"/>
<polygon fill="#5b6573" stroke="#5b6573" stroke-width="1.3" points="739.92,-90.45 746.92,-88 739.92,-85.55 739.92,-90.45"/>
</g>
<!-- gold -->
<g id="node6" class="node">
<title>gold</title>
<path fill="#e4dfec" stroke="#7030a0" d="M1157,-113C1157,-113 980,-113 980,-113 974,-113 968,-107 968,-101 968,-101 968,-75 968,-75 968,-69 974,-63 980,-63 980,-63 1157,-63 1157,-63 1163,-63 1169,-69 1169,-75 1169,-75 1169,-101 1169,-101 1169,-107 1163,-113 1157,-113"/>
<text text-anchor="middle" x="1068.5" y="-97.2" font-family="Arial" font-size="11.00">GOLD</text>
<text text-anchor="middle" x="1068.5" y="-85.2" font-family="Arial" font-size="11.00">Delta Lake + Parquet</text>
<text text-anchor="middle" x="1068.5" y="-73.2" font-family="Arial" font-size="11.00">Daily Mix • Net Imports • Net Exports</text>
</g>
<!-- silver&#45;&gt;gold -->
<g id="edge5" class="edge">
<title>silver&#45;&gt;gold</title>
<path fill="none" stroke="#5b6573" stroke-width="1.3" d="M928.02,-88C938.72,-88 949.73,-88 960.65,-88"/>
<polygon fill="#5b6573" stroke="#5b6573" stroke-width="1.3" points="960.8,-90.45 967.8,-88 960.8,-85.55 960.8,-90.45"/>
</g>
<!-- sem -->
<g id="node7" class="node">
<title>sem</title>
<path fill="#ededed" stroke="#666666" d="M1363.5,-105C1363.5,-105 1227.5,-105 1227.5,-105 1221.5,-105 1215.5,-99 1215.5,-93 1215.5,-93 1215.5,-79 1215.5,-79 1215.5,-73 1221.5,-67 1227.5,-67 1227.5,-67 1363.5,-67 1363.5,-67 1369.5,-67 1375.5,-73 1375.5,-79 1375.5,-79 1375.5,-93 1375.5,-93 1375.5,-99 1369.5,-105 1363.5,-105"/>
<text text-anchor="middle" x="1295.5" y="-89.2" font-family="Arial" font-size="11.00">Semantic / Metrics Layer</text>
<text text-anchor="middle" x="1295.5" y="-77.2" font-family="Arial" font-size="11.00">Governed analytical contract</text>
</g>
<!-- gold&#45;&gt;sem -->
<g id="edge6" class="edge">
<title>gold&#45;&gt;sem</title>
<path fill="none" stroke="#5b6573" stroke-width="1.3" d="M1169.17,-87.11C1182.16,-87 1195.39,-86.88 1208.14,-86.77"/>
<polygon fill="#5b6573" stroke="#5b6573" stroke-width="1.3" points="1208.19,-89.22 1215.17,-86.71 1208.15,-84.32 1208.19,-89.22"/>
</g>
<!-- agent -->
<g id="node10" class="node">
<title>agent</title>
<path fill="#d9ead3" stroke="#38761d" d="M1602,-72C1602,-72 1434,-72 1434,-72 1428,-72 1422,-66 1422,-60 1422,-60 1422,-46 1422,-46 1422,-40 1428,-34 1434,-34 1434,-34 1602,-34 1602,-34 1608,-34 1614,-40 1614,-46 1614,-46 1614,-60 1614,-60 1614,-66 1608,-72 1602,-72"/>
<text text-anchor="middle" x="1518" y="-56.2" font-family="Arial" font-size="11.00">AI Data Agent</text>
<text text-anchor="middle" x="1518" y="-44.2" font-family="Arial" font-size="11.00">SQL Tool • RAG Tool • Metrics Tool</text>
</g>
<!-- sem&#45;&gt;agent -->
<g id="edge7" class="edge">
<title>sem&#45;&gt;agent</title>
<path fill="none" stroke="#5b6573" stroke-width="1.3" d="M1375.79,-74.13C1388.4,-72.25 1401.59,-70.27 1414.64,-68.32"/>
<polygon fill="#5b6573" stroke="#5b6573" stroke-width="1.3" points="1415.3,-70.7 1421.86,-67.24 1414.58,-65.85 1415.3,-70.7"/>
</g>
<!-- docs -->
<g id="node8" class="node">
<title>docs</title>
<path fill="#fce4d6" stroke="#c65911" d="M1123,-38C1123,-38 1014,-38 1014,-38 1008,-38 1002,-32 1002,-26 1002,-26 1002,-12 1002,-12 1002,-6 1008,0 1014,0 1014,0 1123,0 1123,0 1129,0 1135,-6 1135,-12 1135,-12 1135,-26 1135,-26 1135,-32 1129,-38 1123,-38"/>
<text text-anchor="middle" x="1068.5" y="-22.2" font-family="Arial" font-size="11.00">Documentation / FAQs</text>
<text text-anchor="middle" x="1068.5" y="-10.2" font-family="Arial" font-size="11.00">Domain knowledge</text>
</g>
<!-- rag -->
<g id="node9" class="node">
<title>rag</title>
<path fill="#e2f0d9" stroke="#548235" d="M1370,-41C1370,-41 1221,-41 1221,-41 1215,-41 1209,-35 1209,-29 1209,-29 1209,-15 1209,-15 1209,-9 1215,-3 1221,-3 1221,-3 1370,-3 1370,-3 1376,-3 1382,-9 1382,-15 1382,-15 1382,-29 1382,-29 1382,-35 1376,-41 1370,-41"/>
<text text-anchor="middle" x="1295.5" y="-25.2" font-family="Arial" font-size="11.00">Hybrid RAG</text>
<text text-anchor="middle" x="1295.5" y="-13.2" font-family="Arial" font-size="11.00">Vector + Keyword + Reranking</text>
</g>
<!-- docs&#45;&gt;rag -->
<g id="edge10" class="edge">
<title>docs&#45;&gt;rag</title>
<path fill="none" stroke="#5b6573" stroke-width="1.3" d="M1135.18,-19.88C1155.9,-20.15 1179.2,-20.46 1201.44,-20.76"/>
<polygon fill="#5b6573" stroke="#5b6573" stroke-width="1.3" points="1201.59,-23.21 1208.63,-20.86 1201.66,-18.31 1201.59,-23.21"/>
</g>
<!-- rag&#45;&gt;agent -->
<g id="edge11" class="edge">
<title>rag&#45;&gt;agent</title>
<path fill="none" stroke="#5b6573" stroke-width="1.3" d="M1382.07,-34.03C1392.79,-35.54 1403.84,-37.09 1414.79,-38.63"/>
<polygon fill="#5b6573" stroke="#5b6573" stroke-width="1.3" points="1414.69,-41.09 1421.97,-39.64 1415.38,-36.24 1414.69,-41.09"/>
</g>
<!-- llm -->
<g id="node11" class="node">
<title>llm</title>
<path fill="#d9eaf7" stroke="#1155cc" d="M1814,-72C1814,-72 1666,-72 1666,-72 1660,-72 1654,-66 1654,-60 1654,-60 1654,-46 1654,-46 1654,-40 1660,-34 1666,-34 1666,-34 1814,-34 1814,-34 1820,-34 1826,-40 1826,-46 1826,-46 1826,-60 1826,-60 1826,-66 1820,-72 1814,-72"/>
<text text-anchor="middle" x="1740" y="-56.2" font-family="Arial" font-size="11.00">Enterprise LLM</text>
<text text-anchor="middle" x="1740" y="-44.2" font-family="Arial" font-size="11.00">Grounded response + citations</text>
</g>
<!-- agent&#45;&gt;llm -->
<g id="edge8" class="edge">
<title>agent&#45;&gt;llm</title>
<path fill="none" stroke="#5b6573" stroke-width="1.3" d="M1614.22,-53C1624.98,-53 1635.94,-53 1646.66,-53"/>
<polygon fill="#5b6573" stroke="#5b6573" stroke-width="1.3" points="1646.68,-55.45 1653.68,-53 1646.68,-50.55 1646.68,-55.45"/>
</g>
<!-- user -->
<g id="node12" class="node">
<title>user</title>
<path fill="#fff2cc" stroke="#bf9000" d="M2117,-71C2117,-71 1878,-71 1878,-71 1872,-71 1866,-65 1866,-59 1866,-59 1866,-47 1866,-47 1866,-41 1872,-35 1878,-35 1878,-35 2117,-35 2117,-35 2123,-35 2129,-41 2129,-47 2129,-47 2129,-59 2129,-59 2129,-65 2123,-71 2117,-71"/>
<text text-anchor="middle" x="1997.5" y="-50.2" font-family="Arial" font-size="11.00">Analysts • Engineers • Data Scientists • Managers</text>
</g>
<!-- llm&#45;&gt;user -->
<g id="edge9" class="edge">
<title>llm&#45;&gt;user</title>
<path fill="none" stroke="#5b6573" stroke-width="1.3" d="M1826.08,-53C1836.56,-53 1847.47,-53 1858.48,-53"/>
<polygon fill="#5b6573" stroke="#5b6573" stroke-width="1.3" points="1858.73,-55.45 1865.73,-53 1858.73,-50.55 1858.73,-55.45"/>
</g>
</g>
</svg>
